<?xml version="1.0" standalone="no"?>
<!DOCTYPE svg PUBLIC "-//W3C//DTD SVG 20010904//EN"
 "http://www.w3.org/TR/2001/REC-SVG-20010904/DTD/svg10.dtd">
<svg version="1.0" xmlns="http://www.w3.org/2000/svg"
 width="338.000000pt" height="542.000000pt" viewBox="0 0 338.000000 542.000000"
 preserveAspectRatio="xMidYMid meet">
<metadata>
Created by potrace 1.16, written by Peter Selinger 2001-2019
</metadata>
<g transform="translate(0.000000,542.000000) scale(0.100000,-0.100000)"
fill="#000000" stroke="none">
<path d="M1610 5026 c-117 -25 -217 -105 -268 -214 -24 -50 -27 -70 -27 -157
0 -93 2 -105 33 -167 67 -137 187 -212 342 -212 155 0 275 75 342 212 31 62
33 74 33 167 0 87 -3 107 -26 155 -55 115 -160 197 -283 219 -70 13 -75 13
-146 -3z"/>
<path d="M1134 4119 c-73 -28 -137 -88 -173 -162 -21 -43 -79 -257 -191 -708
-151 -602 -161 -649 -150 -688 39 -145 221 -178 306 -54 13 20 87 297 217 820
108 434 197 794 197 801 0 20 -146 14 -206 -9z"/>
<path d="M1455 4128 c-2 -7 -140 -555 -305 -1218 -165 -663 -303 -1213 -306
-1222 -5 -16 12 -18 228 -20 l233 -3 5 -635 c5 -631 5 -635 27 -670 74 -119
264 -90 302 45 7 27 11 239 11 653 l0 612 40 0 39 0 3 -632 c3 -578 5 -636 20
-665 38 -68 121 -104 193 -83 40 12 87 48 108 85 9 14 13 198 17 655 l5 635
233 3 232 2 -7 28 c-3 15 -142 569 -308 1232 l-301 1205 -232 3 c-181 2 -233
0 -237 -10z"/>
<path d="M2040 4129 c0 -7 89 -369 197 -803 129 -516 204 -800 218 -819 30
-45 68 -69 118 -74 88 -10 164 41 187 128 10 38 0 88 -151 692 -94 378 -172
672 -186 700 -34 69 -83 119 -150 153 -48 24 -73 30 -145 32 -68 3 -88 1 -88
-9z"/>
</g>
</svg>
