<?xml version="1.0" standalone="no"?>
<!DOCTYPE svg PUBLIC "-//W3C//DTD SVG 20010904//EN"
 "http://www.w3.org/TR/2001/REC-SVG-20010904/DTD/svg10.dtd">
<svg version="1.0" xmlns="http://www.w3.org/2000/svg"
 width="267.000000pt" height="551.000000pt" viewBox="0 0 267.000000 551.000000"
 preserveAspectRatio="xMidYMid meet">
<metadata>
Created by potrace 1.16, written by Peter Selinger 2001-2019
</metadata>
<g transform="translate(0.000000,551.000000) scale(0.100000,-0.100000)"
fill="#000000" stroke="none">
<path d="M1053 5069 c-71 -27 -155 -106 -190 -177 -23 -49 -27 -70 -28 -147 0
-77 4 -98 27 -147 70 -151 241 -234 398 -194 73 19 156 70 195 122 53 69 69
122 69 219 0 78 -3 98 -27 147 -36 73 -119 150 -192 177 -74 28 -180 27 -252
0z"/>
<path d="M620 4220 c-131 -24 -234 -94 -303 -206 -58 -94 -57 -69 -57 -1016 0
-946 -3 -894 57 -949 41 -38 66 -49 117 -49 81 0 134 33 167 105 18 38 19 83
19 831 0 601 3 793 12 802 19 19 66 15 78 -7 7 -13 10 -558 10 -1690 0 -1155
3 -1678 11 -1698 13 -34 55 -80 91 -99 15 -8 51 -14 81 -14 44 0 62 5 95 30
23 16 51 48 62 69 20 39 20 56 20 889 0 580 3 859 11 880 29 83 149 83 178 0
8 -21 11 -300 11 -878 0 -923 -2 -887 57 -941 42 -40 66 -49 125 -49 69 0 130
37 158 96 20 40 20 69 20 1713 0 1134 3 1679 10 1692 12 22 59 26 78 7 9 -9
12 -201 12 -802 0 -782 0 -790 21 -833 31 -64 78 -96 150 -101 50 -4 65 0 104
22 28 17 52 41 65 66 20 38 20 59 20 910 0 854 0 872 -21 932 -43 128 -137
222 -274 274 -46 17 -89 18 -595 20 -300 1 -565 -2 -590 -6z"/>
</g>
</svg>
